<svg viewBox="0 0 2302 2302" xmlns="http://www.w3.org/2000/svg" xml:space="preserve" style="fill-rule:evenodd;clip-rule:evenodd;stroke-linejoin:round;stroke-miterlimit:2"><path style="fill:none" d="M-557.075 332.972h2302v2302h-2302z" transform="translate(557.075 -332.972)"/><path d="M1801.06 0H517.694C473.404 0 437.5 35.904 437.5 80.194V437.5l743.75 218.75 700-218.75V80.194c0-44.29-35.9-80.194-80.19-80.194z" style="fill:#41a5ee;fill-rule:nonzero" transform="translate(38.399 116.02) scale(1.18283)"/><path d="M1881.25 437.5H437.5V875l743.75 131.25 700-131.25V437.5z" style="fill:#2b7cd3;fill-rule:nonzero" transform="translate(38.399 116.02) scale(1.18283)"/><path d="M437.5 875v437.5l700 87.5 743.75-87.5V875H437.5z" style="fill:#185abd;fill-rule:nonzero" transform="translate(38.399 116.02) scale(1.18283)"/><path d="M517.694 1750H1801.06c44.29 0 80.19-35.9 80.19-80.19V1312.5H437.5v357.31c0 44.29 35.904 80.19 80.194 80.19z" style="fill:#103f91;fill-rule:nonzero" transform="translate(38.399 116.02) scale(1.18283)"/><path d="M969.806 350H437.5v1093.75h532.306c44.234-.14 80.054-35.96 80.194-80.19V430.194c-.14-44.23-35.96-80.05-80.194-80.194z" style="fill-opacity:.1;fill-rule:nonzero" transform="translate(38.399 116.02) scale(1.18283)"/><path d="M926.056 393.75H437.5V1487.5h488.556c44.23-.14 80.054-35.96 80.194-80.19V473.944c-.14-44.23-35.964-80.05-80.194-80.194z" style="fill-opacity:.2;fill-rule:nonzero" transform="translate(38.399 116.02) scale(1.18283)"/><path d="M926.056 393.75H437.5V1400h488.556c44.23-.14 80.054-35.96 80.194-80.19V473.944c-.14-44.23-35.964-80.05-80.194-80.194z" style="fill-opacity:.2;fill-rule:nonzero" transform="translate(38.399 116.02) scale(1.18283)"/><path d="M882.306 393.75H437.5V1400h444.806c44.23-.14 80.05-35.96 80.194-80.19V473.944c-.144-44.23-35.964-80.05-80.194-80.194z" style="fill-opacity:.2;fill-rule:nonzero" transform="translate(38.399 116.02) scale(1.18283)"/><path d="M80.194 393.75h802.112c44.29 0 80.194 35.904 80.194 80.194v802.116c0 44.29-35.904 80.19-80.194 80.19H80.194c-44.29 0-80.194-35.9-80.194-80.19V473.944c0-44.29 35.904-80.194 80.194-80.194z" style="fill:url(#a);fill-rule:nonzero" transform="translate(38.399 116.02) scale(1.18283)"/><text style="font-family:'IBMPlexMono-Bold','IBM Plex Mono',monospace;font-weight:700;font-size:50px;fill:#fff" transform="translate(233.831 1367.138) scale(12.388)">M$</text><defs><linearGradient id="a" x1="0" y1="0" x2="1" y2="0" gradientUnits="userSpaceOnUse" gradientTransform="scale(1256.124) rotate(59.999 -.162 .247)"><stop offset="0" style="stop-color:#2368c4;stop-opacity:1"/><stop offset=".5" style="stop-color:#1a5dbe;stop-opacity:1"/><stop offset="1" style="stop-color:#1146ac;stop-opacity:1"/></linearGradient></defs></svg>