<svg viewBox="0 0 2302 2302" xmlns="http://www.w3.org/2000/svg" xml:space="preserve" style="fill-rule:evenodd;clip-rule:evenodd;stroke-linejoin:round;stroke-miterlimit:2"><path style="fill:none" d="M-557.075 332.972h2302v2302h-2302z" transform="translate(557.075 -332.972)"/><path d="M1801.06 0H517.694C473.404 0 437.5 35.904 437.5 80.194V437.5l743.75 218.75 700-218.75V80.194c0-44.29-35.9-80.194-80.19-80.194z" style="fill:#41a5ee;fill-rule:nonzero" transform="translate(38.399 116.02) scale(1.18283)"/><path d="M1881.25 437.5H437.5V875l743.75 131.25 700-131.25V437.5z" style="fill:#2b7cd3;fill-rule:nonzero" transform="translate(38.399 116.02) scale(1.18283)"/><path d="M437.5 875v437.5l700 87.5 743.75-87.5V875H437.5z" style="fill:#185abd;fill-rule:nonzero" transform="translate(38.399 116.02) scale(1.18283)"/><path d="M517.694 1750H1801.06c44.29 0 80.19-35.9 80.19-80.19V1312.5H437.5v357.31c0 44.29 35.904 80.19 80.194 80.19z" style="fill:#103f91;fill-rule:nonzero" transform="translate(38.399 116.02) scale(1.18283)"/><path d="M969.806 350H437.5v1093.75h532.306c44.234-.14 80.054-35.96 80.194-80.19V430.194c-.14-44.23-35.96-80.05-80.194-80.194z" style="fill-opacity:.1;fill-rule:nonzero" transform="translate(38.399 116.02) scale(1.18283)"/><path d="M926.056 393.75H437.5V1487.5h488.556c44.23-.14 80.054-35.96 80.194-80.19V473.944c-.14-44.23-35.964-80.05-80.194-80.194z" style="fill-opacity:.2;fill-rule:nonzero" transform="translate(38.399 116.02) scale(1.18283)"/><path d="M926.056 393.75H437.5V1400h488.556c44.23-.14 80.054-35.96 80.194-80.19V473.944c-.14-44.23-35.964-80.05-80.194-80.194z" style="fill-opacity:.2;fill-rule:nonzero" transform="translate(38.399 116.02) scale(1.18283)"/><path d="M882.306 393.75H437.5V1400h444.806c44.23-.14 80.05-35.96 80.194-80.19V473.944c-.144-44.23-35.964-80.05-80.194-80.194z" style="fill-opacity:.2;fill-rule:nonzero" transform="translate(38.399 116.02) scale(1.18283)"/><path d="M80.194 393.75h802.112c44.29 0 80.194 35.904 80.194 80.194v802.116c0 44.29-35.904 80.19-80.194 80.19H80.194c-44.29 0-80.194-35.9-80.194-80.19V473.944c0-44.29 35.904-80.194 80.194-80.194z" style="fill:url(#a);fill-rule:nonzero" transform="translate(38.399 116.02) scale(1.18283)"/><path d="m.431-.311.008-.195H.43L.3-.147.17-.506H.161l.008.195V0h-.13v-.698h.177l.086.235H.31l.086-.235h.165V0h-.13v-.311z" style="fill:#fff;fill-rule:nonzero" transform="translate(233.831 1367.14) scale(619.4)"/><path d="M.253.01a.346.346 0 0 1-.131-.034.247.247 0 0 1-.092-.072l.087-.095a.245.245 0 0 0 .146.078v-.184L.24-.301a.232.232 0 0 1-.142-.071.19.19 0 0 1-.046-.13c0-.057.017-.103.052-.138a.252.252 0 0 1 .149-.066v-.105h.114v.104a.271.271 0 0 1 .182.091L.463-.52a.191.191 0 0 0-.106-.06v.167l.023.004a.247.247 0 0 1 .142.069.185.185 0 0 1 .046.128.2.2 0 0 1-.115.188.31.31 0 0 1-.086.029v.108H.253V.01zm-.06-.517c0 .021.006.037.017.048.011.011.028.02.053.027v-.151C.238-.579.221-.571.21-.558a.077.077 0 0 0-.017.051zm.235.305c0-.023-.006-.04-.017-.051a.113.113 0 0 0-.054-.026v.165a.086.086 0 0 0 .054-.031.094.094 0 0 0 .017-.057z" style="fill:#fff;fill-rule:nonzero" transform="translate(605.471 1367.14) scale(619.4)"/><defs><linearGradient id="a" x1="0" y1="0" x2="1" y2="0" gradientUnits="userSpaceOnUse" gradientTransform="scale(1256.12) rotate(59.999 -.162 .247)"><stop offset="0" style="stop-color:#2368c4;stop-opacity:1"/><stop offset=".5" style="stop-color:#1a5dbe;stop-opacity:1"/><stop offset="1" style="stop-color:#1146ac;stop-opacity:1"/></linearGradient></defs></svg>